<svg xmlns="http://www.w3.org/2000/svg" viewBox="0 0 2000 2000"><defs><style>.cls-1{fill:none;}.cls-2,.cls-3{fill:#fff;}.cls-3{font-size:32.65px;font-family:Poppins-Light, Poppins;font-weight:300;}.cls-4{fill:#231f20;stroke:#f1f2f2;stroke-miterlimit:10;stroke-width:0.5px;}</style></defs><g id="Layer_2" data-name="Layer 2"><g id="Layer_1-2" data-name="Layer 1"><rect class="cls-1" width="2000" height="2000"/><path class="cls-2" d="M510.17,881.26a73.63,73.63,0,0,1,27.95-29.35,76.86,76.86,0,0,1,39.61-10.43q21.53,0,37.37,9.24A66.6,66.6,0,0,1,632,864.44a3.83,3.83,0,0,0,6.7-2.55V848a3.84,3.84,0,0,1,3.84-3.84h19.81a3.84,3.84,0,0,1,3.85,3.84v155.63a3.84,3.84,0,0,1-3.85,3.83H642.56a3.84,3.84,0,0,1-3.84-3.83V989.11a3.84,3.84,0,0,0-6.7-2.55,68.8,68.8,0,0,1-17.37,14.2q-16,9.38-37.22,9.38A74.34,74.34,0,0,1,538,999.41a75.26,75.26,0,0,1-27.8-30.09Q500,950,500,925.22,500,900.19,510.17,881.26Zm121.07,12.07a52.68,52.68,0,0,0-20.18-21,57.39,57.39,0,0,0-55.75-.15,52,52,0,0,0-20,20.86q-7.49,13.71-7.47,32.19,0,18.76,7.47,32.62a52.71,52.71,0,0,0,20,21.16,54.28,54.28,0,0,0,27.8,7.3,55.09,55.09,0,0,0,27.95-7.3,52.39,52.39,0,0,0,20.18-21.16q7.47-13.85,7.48-32.33T631.24,893.33Z"/><path class="cls-2" d="M925.41,849.08A57,57,0,0,1,949,872.77q8.67,15.79,8.67,38.44v92.42a3.84,3.84,0,0,1-3.85,3.83H934.64a3.85,3.85,0,0,1-3.85-3.83V915.08q0-24.44-12.1-37.4t-32.74-13q-21.23,0-33.78,13.56t-12.56,39.19v86.16a3.84,3.84,0,0,1-3.84,3.83H816.55a3.84,3.84,0,0,1-3.84-3.83V915.08q0-24.44-12.11-37.4t-32.74-13q-21.23,0-33.78,13.56t-12.55,39.19v86.16a3.85,3.85,0,0,1-3.85,3.83H698.17a3.84,3.84,0,0,1-3.85-3.83V848a3.84,3.84,0,0,1,3.85-3.84h19.51a3.85,3.85,0,0,1,3.85,3.84v8.53a3.83,3.83,0,0,0,6.59,2.65A54.23,54.23,0,0,1,743.2,848a65.93,65.93,0,0,1,30-6.85q20.63,0,36.47,9.24a55.15,55.15,0,0,1,20.18,20.31,3.79,3.79,0,0,0,6.59.13,53.25,53.25,0,0,1,19.57-20.14,67.05,67.05,0,0,1,35.27-9.54Q910.47,841.18,925.41,849.08Z"/><path class="cls-2" d="M1044.55,850.87q16-9.39,37.22-9.39a76.89,76.89,0,0,1,39.61,10.43,73.69,73.69,0,0,1,27.95,29.35q10.17,18.93,10.17,44,0,24.74-10.17,44.1a74.57,74.57,0,0,1-67.56,40.82q-20.93,0-36.92-9.38a72.5,72.5,0,0,1-17.71-14.3,3.83,3.83,0,0,0-6.66,2.59V1125.8a3.84,3.84,0,0,1-3.84,3.84H997.12a3.84,3.84,0,0,1-3.84-3.84V848a3.84,3.84,0,0,1,3.84-3.84h19.52a3.84,3.84,0,0,1,3.84,3.84v14.38a3.83,3.83,0,0,0,6.68,2.58A69.74,69.74,0,0,1,1044.55,850.87ZM1124.22,893A51.71,51.71,0,0,0,1104,872.17a56,56,0,0,0-28-7.15,54.59,54.59,0,0,0-27.65,7.3,53.39,53.39,0,0,0-20.33,21.16q-7.63,13.85-7.63,32,0,18.48,7.63,32.33A53.32,53.32,0,0,0,1048.44,979a54.49,54.49,0,0,0,27.65,7.3,55.09,55.09,0,0,0,28-7.3,52.39,52.39,0,0,0,20.18-21.16q7.47-13.85,7.47-32.62Q1131.69,906.74,1124.22,893Z"/><path class="cls-2" d="M1193.28,812.28a18.51,18.51,0,0,1,9.08-31.19,18.55,18.55,0,0,1,18.18,6.56,19.21,19.21,0,0,1,0,23,18.54,18.54,0,0,1-18.18,6.57A17.77,17.77,0,0,1,1193.28,812.28ZM1219.59,848v155.63a3.85,3.85,0,0,1-3.85,3.83h-19.51a3.84,3.84,0,0,1-3.85-3.83V848a3.84,3.84,0,0,1,3.85-3.84h19.51A3.85,3.85,0,0,1,1219.59,848Z"/><path class="cls-2" d="M1304.63,848.93q11.85-6.9,28.35-7.66a3.88,3.88,0,0,1,4.09,3.84v20.25a3.84,3.84,0,0,1-3.84,3.83h-3.33q-45.75,0-45.74,49.47v85a3.85,3.85,0,0,1-3.85,3.83H1260.8a3.84,3.84,0,0,1-3.85-3.83V848a3.84,3.84,0,0,1,3.85-3.84h19.51a3.85,3.85,0,0,1,3.85,3.84v10a3.83,3.83,0,0,0,6.79,2.42A52.09,52.09,0,0,1,1304.63,848.93Z"/><path class="cls-2" d="M1495.59,935.94H1372.38a3.86,3.86,0,0,0-3.83,4.33q2.48,21.06,16.2,33.37,15.09,13.56,36.62,13.56,17.64,0,29.45-8.2a43.2,43.2,0,0,0,15.66-19.44,3.88,3.88,0,0,1,3.57-2.46h21.39a3.86,3.86,0,0,1,3.63,5.16,70,70,0,0,1-24.67,33.13q-19.73,14.76-49,14.75-23.31,0-41.7-10.43a73.82,73.82,0,0,1-28.85-29.65q-10.47-19.21-10.46-44.55t10.16-44.4a71.23,71.23,0,0,1,28.55-29.35q18.39-10.28,42.3-10.28,23.33,0,41.26,10.13a70.23,70.23,0,0,1,27.65,27.86q9.72,17.74,9.72,40.08,0,6.16-.57,12.9A3.85,3.85,0,0,1,1495.59,935.94ZM1465,887.22a44.6,44.6,0,0,0-18.68-17,58.38,58.38,0,0,0-26.16-5.82q-20.64,0-35.13,13.12Q1372,889.36,1369,909.42a3.87,3.87,0,0,0,3.81,4.47h95.12a3.88,3.88,0,0,0,3.85-4.14A48.07,48.07,0,0,0,1465,887.22Z"/><path class="cls-2" d="M592.58,1122.41v-52a5.84,5.84,0,0,0-.76-3.43,5.46,5.46,0,0,0-3-1.57v-1.58h15.83v1.58a5.43,5.43,0,0,0-3,1.57,5.77,5.77,0,0,0-.76,3.43v52a5.8,5.8,0,0,0,.76,3.41,5.31,5.31,0,0,0,3,1.6V1129H588.84v-1.57a5.34,5.34,0,0,0,3-1.6A5.88,5.88,0,0,0,592.58,1122.41Z"/><path class="cls-2" d="M641.38,1074v48.42a6,6,0,0,0,.73,3.41,5.23,5.23,0,0,0,3,1.6V1129H630.7v-1.57a5.2,5.2,0,0,0,3-1.6,6,6,0,0,0,.73-3.41v-52a5.77,5.77,0,0,0-.76-3.43,5.39,5.39,0,0,0-3-1.57v-1.58H652v1.58c-2,.66-3,1.67-3,3,0,1.17.74,2.56,2.22,4.19l38.6,43.07v-45.28A5.84,5.84,0,0,0,689,1067a5.46,5.46,0,0,0-3-1.57v-1.58h14.42v1.58a5.39,5.39,0,0,0-3,1.57,5.77,5.77,0,0,0-.76,3.43v52a6,6,0,0,0,.73,3.41,5.16,5.16,0,0,0,3,1.6V1129H683.3v-1.57c2-.5,3-1.3,3-2.39,0-.81-.93-2.27-2.8-4.36Z"/><path class="cls-2" d="M730.12,1122.41v-52a6,6,0,0,0-.73-3.4,5.23,5.23,0,0,0-3-1.6v-1.58h33q13.26,0,19.74,3.09a27.52,27.52,0,0,1,12.61,12.92,36,36,0,0,1,4,16.59,35.62,35.62,0,0,1-5.25,18.91,25.65,25.65,0,0,1-11.53,10.6q-7,3.08-19.54,3.08h-33v-1.57a5.23,5.23,0,0,0,3-1.6A6,6,0,0,0,730.12,1122.41Zm8.35.24H759q11.61,0,17-3.15a20.66,20.66,0,0,0,8.87-10.82A33.81,33.81,0,0,0,787,1096.4q0-11.94-6.13-19.09a18.46,18.46,0,0,0-8.38-5.53q-5-1.63-13.51-1.63h-20.5Z"/><path class="cls-2" d="M831,1070.38v33.47q0,7.74.76,10.68a8.85,8.85,0,0,0,3.33,4.92q5.25,4.18,18,4.19,14.07,0,19-5.13a9.64,9.64,0,0,0,2.39-4.74,56.66,56.66,0,0,0,.58-9.92v-33.47a5.79,5.79,0,0,0-.76-3.4,5.27,5.27,0,0,0-3-1.6v-1.58h14.42v1.58a5.46,5.46,0,0,0-3,1.57,5.84,5.84,0,0,0-.76,3.43v35.16q0,9-1.52,12.63a16.88,16.88,0,0,1-9.4,9.25q-6.82,3-18.8,3-17.16,0-24-6.35a15,15,0,0,1-4.47-6.81q-1.14-3.78-1.14-11.69v-35.16a5.77,5.77,0,0,0-.76-3.43,5.43,5.43,0,0,0-3-1.57v-1.58h15.83v1.58a5.31,5.31,0,0,0-3,1.6A5.79,5.79,0,0,0,831,1070.38Z"/><path class="cls-2" d="M972.65,1067.18l-6.42,12.69-1.4-.7a16.9,16.9,0,0,0,.29-2.33q0-1.39-3.8-3.37-8.05-4.31-19.62-4.31a33.39,33.39,0,0,0-15.76,3.43q-6.48,3.5-6.48,9.72a8.34,8.34,0,0,0,1.63,5,8.77,8.77,0,0,0,4.38,3.17,25.59,25.59,0,0,0,6,1.22q3.21.3,13.78.7a99.66,99.66,0,0,1,13.34,1.11,24.46,24.46,0,0,1,7.74,2.62,13.82,13.82,0,0,1,5.43,5.55,16.39,16.39,0,0,1,2,8,16.84,16.84,0,0,1-7.41,14.37q-8.88,6.35-23.59,6.35a57,57,0,0,1-15.21-2.21,66.53,66.53,0,0,1-14.81-6.06,3.19,3.19,0,0,0-1.4-.58c-.58,0-1.46.68-2.63,2l-1.34-.88,7.42-12.39,1.4.81c-.12.47-.2.78-.23.93a5.28,5.28,0,0,0-.3,1.52c0,1.09,2,2.67,6,4.77a44.11,44.11,0,0,0,20.84,5.3q9.87,0,16.41-3.38a13.23,13.23,0,0,0,5-4.39,10.19,10.19,0,0,0,1.87-5.79,8.42,8.42,0,0,0-1.57-5,8.64,8.64,0,0,0-4.15-3.14,26.94,26.94,0,0,0-5.34-1.17q-3-.35-11.13-.64-9.63-.4-13.78-1a36.79,36.79,0,0,1-7.82-1.89,16,16,0,0,1-7.53-5.47,15.1,15.1,0,0,1-2.86-9.2q0-9.36,8.52-14.72,8.7-5.48,22.13-5.47a60.48,60.48,0,0,1,24.64,5.47,11.57,11.57,0,0,0,2.16.76c.62,0,1.37-.72,2.22-2.16Z"/><path class="cls-2" d="M1068.5,1070.5v51.91a6.07,6.07,0,0,0,.73,3.41,5.23,5.23,0,0,0,3,1.6V1129h-15.82v-1.57a5.27,5.27,0,0,0,3-1.6,5.8,5.8,0,0,0,.76-3.41V1070.5h-21.31a6,6,0,0,0-3.44.74,5.33,5.33,0,0,0-1.58,3h-1.58v-13.79h1.58a5.4,5.4,0,0,0,1.58,3,5.89,5.89,0,0,0,3.44.75h51a5.89,5.89,0,0,0,3.44-.75,5.47,5.47,0,0,0,1.58-3h1.57v13.79h-1.57a5.27,5.27,0,0,0-1.61-3,6,6,0,0,0-3.41-.74Z"/><path class="cls-2" d="M1128.46,1099.48v22.93a5.8,5.8,0,0,0,.76,3.41,5.27,5.27,0,0,0,3,1.6V1129h-15.82v-1.57a5.23,5.23,0,0,0,3-1.6,6,6,0,0,0,.73-3.41v-52a5.84,5.84,0,0,0-.76-3.43,5.46,5.46,0,0,0-3-1.57v-1.58h38.83a50.91,50.91,0,0,1,10.77.94,19.72,19.72,0,0,1,7.27,3.14q6.78,4.77,6.78,14,0,7.5-4.73,11.84t-13.9,5.21l16.41,26a5.48,5.48,0,0,0,1.72,1.81,9.42,9.42,0,0,0,3,.75V1129h-16.19v-1.57c1.52-.31,2.28-.8,2.28-1.46a7.45,7.45,0,0,0-1.34-2.79l-15-23.69Zm0-6.34h24.87a68.29,68.29,0,0,0,9-.44,14.77,14.77,0,0,0,5.11-1.6q4.62-2.55,4.62-8.9,0-6.12-4.33-9.2-4-2.85-13.48-2.85h-25.81Z"/><path class="cls-2" d="M1208.62,1122.41v-52a5.84,5.84,0,0,0-.76-3.43,5.46,5.46,0,0,0-3-1.57v-1.58h15.82v1.58a5.46,5.46,0,0,0-3,1.57,5.86,5.86,0,0,0-.75,3.43v52a5.89,5.89,0,0,0,.75,3.41,5.34,5.34,0,0,0,3,1.6V1129h-15.82v-1.57a5.34,5.34,0,0,0,3-1.6A5.88,5.88,0,0,0,1208.62,1122.41Z"/><path class="cls-2" d="M1258.82,1098.49v24.16h40.4a6.06,6.06,0,0,0,3.48-.75,5,5,0,0,0,1.55-3h1.63v13.8h-1.63a5.14,5.14,0,0,0-1.52-3,5.82,5.82,0,0,0-3.45-.76h-52.55v-1.57a5.23,5.23,0,0,0,3-1.6,6,6,0,0,0,.73-3.41v-52a5.77,5.77,0,0,0-.76-3.43,5.43,5.43,0,0,0-3-1.57v-1.58h52.14a5.91,5.91,0,0,0,3.45-.75,5.43,5.43,0,0,0,1.58-3h1.57v13.79h-1.57a5.39,5.39,0,0,0-1.58-3,6,6,0,0,0-3.45-.74h-40v22h25.52a5.8,5.8,0,0,0,3.44-.76,5.39,5.39,0,0,0,1.58-3h1.57v13.8h-1.57a5.24,5.24,0,0,0-1.61-3,5.91,5.91,0,0,0-3.41-.75Z"/><path class="cls-2" d="M1392.17,1067.18l-6.42,12.69-1.4-.7a16.9,16.9,0,0,0,.29-2.33q0-1.39-3.8-3.37-8.05-4.31-19.62-4.31a33.39,33.39,0,0,0-15.76,3.43q-6.48,3.5-6.48,9.72a8.34,8.34,0,0,0,1.63,5,8.77,8.77,0,0,0,4.38,3.17,25.59,25.59,0,0,0,6,1.22q3.21.3,13.78.7a99.66,99.66,0,0,1,13.34,1.11,24.46,24.46,0,0,1,7.74,2.62,13.82,13.82,0,0,1,5.43,5.55,16.39,16.39,0,0,1,2,8,16.84,16.84,0,0,1-7.41,14.37q-8.88,6.35-23.59,6.35a57,57,0,0,1-15.21-2.21,66.53,66.53,0,0,1-14.81-6.06,3.19,3.19,0,0,0-1.4-.58c-.58,0-1.46.68-2.63,2l-1.34-.88,7.42-12.39,1.4.81-.24.93a5.56,5.56,0,0,0-.29,1.52c0,1.09,2,2.67,6,4.77a44.11,44.11,0,0,0,20.84,5.3q9.87,0,16.41-3.38a13.23,13.23,0,0,0,5-4.39,10.19,10.19,0,0,0,1.87-5.79,8.36,8.36,0,0,0-1.58-5,8.57,8.57,0,0,0-4.14-3.14,26.94,26.94,0,0,0-5.34-1.17q-3-.35-11.13-.64-9.63-.4-13.78-1a36.79,36.79,0,0,1-7.82-1.89,16,16,0,0,1-7.53-5.47,15.1,15.1,0,0,1-2.86-9.2q0-9.36,8.52-14.72,8.7-5.48,22.13-5.47a60.51,60.51,0,0,1,24.64,5.47,11.57,11.57,0,0,0,2.16.76q.93,0,2.22-2.16Z"/><text class="cls-3" transform="translate(588.84 1200.87)">Mfg of Insulated Aluminum Winding Wired &amp; Strips</text><line class="cls-4" x1="588.84" y1="1157.17" x2="1393.22" y2="1157.17"/></g></g></svg>